<svg width="37" height="36" viewBox="0 0 37 36" fill="none" xmlns="http://www.w3.org/2000/svg">
<path fill-rule="evenodd" clip-rule="evenodd" d="M15.5 8C16.5609 8 17.5783 7.57857 18.3284 6.82843C19.0786 6.07828 19.5 5.06087 19.5 4C19.5 2.93913 19.0786 1.92172 18.3284 1.17157C17.5783 0.421427 16.5609 0 15.5 0C14.4391 0 13.4217 0.421427 12.6716 1.17157C11.9214 1.92172 11.5 2.93913 11.5 4C11.5 5.06087 11.9214 6.07828 12.6716 6.82843C13.4217 7.57857 14.4391 8 15.5 8ZM15.5 6C16.0304 6 16.5391 5.78929 16.9142 5.41421C17.2893 5.03914 17.5 4.53043 17.5 4C17.5 3.46957 17.2893 2.96086 16.9142 2.58579C16.5391 2.21071 16.0304 2 15.5 2C14.9696 2 14.4609 2.21071 14.0858 2.58579C13.7107 2.96086 13.5 3.46957 13.5 4C13.5 4.53043 13.7107 5.03914 14.0858 5.41421C14.4609 5.78929 14.9696 6 15.5 6Z" fill="white"/>
<path d="M22 16C22 15.4696 21.7893 14.9609 21.4142 14.5858C21.0391 14.2107 20.5304 14 20 14V18C20.5304 18 21.0391 17.7893 21.4142 17.4142C21.7893 17.0391 22 16.5304 22 16Z" fill="white"/>
<path fill-rule="evenodd" clip-rule="evenodd" d="M6 29C6.00018 28.3794 5.80794 27.774 5.44976 27.2671C5.09158 26.7603 4.58507 26.377 4 26.17V16H9V33C9 33.7956 9.31607 34.5587 9.87868 35.1213C10.4413 35.6839 11.2044 36 12 36C12.7956 36 13.5587 35.6839 14.1213 35.1213C14.6839 34.5587 15 33.7956 15 33V25H16V33C16 33.701 16.24 34.346 16.644 34.857C17.03 35.3466 17.5589 35.7038 18.1573 35.879C18.7556 36.0541 19.3937 36.0385 19.9827 35.8342C20.5718 35.63 21.0826 35.2473 21.4441 34.7394C21.8057 34.2314 22 33.6235 22 33V21.718C23.563 20.998 26 18.91 26 15.571C26 11.364 22.129 10 21.015 10H4V7H2V10.764C1.386 11.314 1 12.112 1 13C0.999378 13.4222 1.08817 13.8397 1.26053 14.2251C1.43289 14.6105 1.6849 14.955 2 15.236V26.171C1.41509 26.378 0.908695 26.7611 0.550529 27.2677C0.192362 27.7744 2.77339e-05 28.3796 0 29V35H2V31H4V35H6V29ZM20 20.437L21.163 19.901C22.307 19.374 24 17.854 24 15.571C24 14.177 23.395 13.333 22.692 12.782C22.3507 12.5163 21.971 12.3039 21.566 12.152C21.3906 12.0835 21.2087 12.0332 21.023 12.002C21.009 12 21.007 12 21.015 12H4V14H11V33C11 33.2652 11.1054 33.5196 11.2929 33.7071C11.4804 33.8946 11.7348 34 12 34C12.2652 34 12.5196 33.8946 12.7071 33.7071C12.8946 33.5196 13 33.2652 13 33V23H18V33C18 33.2652 18.1054 33.5196 18.2929 33.7071C18.4804 33.8946 18.7348 34 19 34C19.2652 34 19.5196 33.8946 19.7071 33.7071C19.8946 33.5196 20 33.2652 20 33V20.437ZM32.754 11.685C32.5171 11.9554 32.2654 12.2125 32 12.455V14.94C32.395 14.55 32.892 14.335 33.33 14.21C33.775 14.084 34.235 14.03 34.63 14.01C35.1071 13.9873 35.5853 14.0027 36.06 14.056L36.096 14.06H36.1C36.557 14.122 36.914 14.488 36.963 14.947V14.96L36.967 14.987C36.9804 15.124 36.989 15.2614 36.993 15.399C37.003 15.663 37.006 16.028 36.977 16.43C36.947 16.828 36.884 17.29 36.75 17.736C36.618 18.173 36.396 18.668 36.002 19.058C35.606 19.45 35.109 19.665 34.671 19.789C34.225 19.916 33.765 19.969 33.37 19.989C32.9237 20.0106 32.4765 19.9989 32.032 19.954L32 19.951V28.94C32.395 28.55 32.892 28.335 33.33 28.21C33.775 28.084 34.235 28.03 34.63 28.01C35.1071 27.9873 35.5853 28.0027 36.06 28.056L36.096 28.06H36.1C36.557 28.122 36.914 28.488 36.963 28.947V28.96L36.967 28.987C36.9804 29.124 36.989 29.2614 36.993 29.399C37.003 29.663 37.006 30.028 36.977 30.43C36.947 30.828 36.884 31.29 36.75 31.736C36.618 32.173 36.396 32.668 36.002 33.059C35.606 33.45 35.109 33.665 34.671 33.789C34.225 33.916 33.765 33.969 33.37 33.989C32.9237 34.0106 32.4765 33.9989 32.032 33.954L32 33.951V35C32 35.2652 31.8946 35.5196 31.7071 35.7071C31.5196 35.8946 31.2652 36 31 36C30.7348 36 30.4804 35.8946 30.2929 35.7071C30.1054 35.5196 30 35.2652 30 35V26.95L29.968 26.953C29.5235 26.9979 29.0763 27.0096 28.63 26.988C28.1906 26.9696 27.7546 26.9025 27.33 26.788C26.89 26.664 26.394 26.449 25.999 26.058C25.604 25.667 25.382 25.172 25.25 24.735C25.1274 24.3091 25.0513 23.8713 25.023 23.429C24.9889 22.9485 24.9923 22.466 25.033 21.986L25.037 21.95V21.946C25.087 21.487 25.443 21.121 25.9 21.06H25.904L25.913 21.058L25.94 21.055L26.032 21.045C26.4765 21.0001 26.9237 20.9884 27.37 21.01C27.765 21.03 28.225 21.083 28.67 21.21C29.109 21.334 29.605 21.548 30 21.939V12.455C29.7346 12.2121 29.4829 11.9547 29.246 11.684C28.9341 11.3324 28.6615 10.9478 28.433 10.537C28.203 10.11 28 9.58 28 9C28 8.42 28.202 7.889 28.433 7.462C28.667 7.028 28.967 6.636 29.246 6.315C29.5834 5.93008 29.9505 5.57231 30.344 5.245L30.366 5.227L30.373 5.221L30.376 5.219C30.741 4.929 31.259 4.928 31.624 5.218L31.627 5.221L31.634 5.226L31.656 5.245C31.7688 5.33735 31.8789 5.43306 31.986 5.532C32.194 5.722 32.472 5.992 32.754 6.315C33.034 6.635 33.333 7.028 33.567 7.462C33.797 7.889 34 8.42 34 9C34 9.58 33.798 10.111 33.567 10.538C33.3385 10.9488 33.0659 11.3334 32.754 11.685ZM31.246 10.371C31.1663 10.4624 31.0843 10.5518 31 10.639C30.9157 10.5518 30.8337 10.4624 30.754 10.371C30.5391 10.1309 30.3507 9.86842 30.192 9.588C30.048 9.32 30 9.124 30 9C30 8.876 30.048 8.68 30.192 8.412C30.333 8.152 30.533 7.882 30.754 7.629C30.837 7.534 30.92 7.444 31 7.361C31.08 7.444 31.163 7.534 31.246 7.629C31.466 7.883 31.667 8.152 31.808 8.412C31.952 8.68 32 8.876 32 9C32 9.124 31.952 9.32 31.808 9.588C31.667 9.848 31.467 10.118 31.246 10.371ZM33.875 30.135C33.614 30.209 33.472 30.297 33.405 30.363C33.338 30.429 33.245 30.575 33.165 30.842C33.085 31.1273 33.0357 31.4203 33.018 31.716C33.011 31.8105 33.0059 31.9052 33.003 32C33.0914 31.9993 33.1797 31.9966 33.268 31.992C33.574 31.976 33.873 31.937 34.125 31.865C34.386 31.791 34.529 31.703 34.595 31.637C34.662 31.571 34.755 31.425 34.835 31.158C34.915 30.8727 34.9643 30.5797 34.982 30.284C34.989 30.1895 34.9941 30.0948 34.997 30C34.9086 30.0007 34.8203 30.0034 34.732 30.008C34.4426 30.0189 34.1552 30.0615 33.875 30.135ZM33.405 16.363C33.472 16.297 33.614 16.209 33.875 16.135C34.128 16.063 34.427 16.024 34.732 16.008C34.822 16.003 34.912 16.001 34.997 16C34.9941 16.0948 34.989 16.1895 34.982 16.284C34.959 16.595 34.912 16.901 34.835 17.158C34.755 17.425 34.662 17.57 34.595 17.637C34.529 17.703 34.386 17.791 34.125 17.865C33.8448 17.9385 33.5574 17.9811 33.268 17.992C33.1797 17.9966 33.0914 17.9993 33.003 18C33.006 17.908 33.011 17.813 33.018 17.716C33.041 17.405 33.088 17.099 33.165 16.842C33.245 16.575 33.338 16.43 33.405 16.363ZM27.003 23C27.006 23.092 27.011 23.187 27.018 23.284C27.041 23.595 27.088 23.901 27.165 24.158C27.245 24.425 27.338 24.57 27.405 24.637C27.472 24.703 27.614 24.791 27.875 24.865C28.128 24.937 28.427 24.976 28.732 24.992C28.822 24.997 28.912 24.999 28.997 25C28.9941 24.9052 28.989 24.8105 28.982 24.716C28.9643 24.4203 28.915 24.1273 28.835 23.842C28.755 23.575 28.662 23.43 28.595 23.363C28.529 23.297 28.386 23.209 28.125 23.135C27.8448 23.0615 27.5574 23.0189 27.268 23.008C27.1797 23.0034 27.0914 23.0008 27.003 23Z" fill="white"/>
</svg>
