<svg width="21" height="21" viewBox="0 0 21 21" fill="none" xmlns="http://www.w3.org/2000/svg">
<path d="M15 10.675C14.8833 10.675 14.7707 10.6583 14.662 10.625C14.5533 10.5917 14.4577 10.5333 14.375 10.45C12.9417 9.15 11.6873 7.89567 10.612 6.687C9.53667 5.47833 8.99934 4.34933 9 3.3C9 2.36667 9.31667 1.58333 9.95 0.95C10.5833 0.316667 11.3667 0 12.3 0C12.8333 0 13.3333 0.112667 13.8 0.338C14.2667 0.563333 14.6667 0.867333 15 1.25C15.3333 0.866667 15.7333 0.562667 16.2 0.338C16.6667 0.113333 17.1667 0.000666667 17.7 0C18.6333 0 19.4167 0.316667 20.05 0.95C20.6833 1.58333 21 2.36667 21 3.3C21 4.35 20.4623 5.47933 19.387 6.688C18.3117 7.89667 17.0577 9.15067 15.625 10.45C15.5417 10.5333 15.4457 10.5917 15.337 10.625C15.2283 10.6583 15.116 10.675 15 10.675ZM15 8.3C15.9833 7.36667 16.896 6.43733 17.738 5.512C18.58 4.58667 19.0007 3.84933 19 3.3C19 2.91667 18.879 2.60433 18.637 2.363C18.395 2.12167 18.0827 2.00067 17.7 2C17.4667 2 17.2457 2.046 17.037 2.138C16.8283 2.23 16.6493 2.36733 16.5 2.55L15 4.35L13.5 2.55C13.35 2.36667 13.171 2.229 12.963 2.137C12.755 2.045 12.534 1.99933 12.3 2C11.9167 2 11.604 2.121 11.362 2.363C11.12 2.605 10.9993 2.91733 11 3.3C11 3.85 11.421 4.58767 12.263 5.513C13.105 6.43833 14.0173 7.36733 15 8.3ZM12.95 18.4L18.9 16.55C18.8167 16.4 18.6957 16.2707 18.537 16.162C18.3783 16.0533 18.1993 15.9993 18 16H12.95C12.5 16 12.1417 15.9833 11.875 15.95C11.6083 15.9167 11.3333 15.85 11.05 15.75L9.625 15.275C9.35834 15.1917 9.16667 15.025 9.05 14.775C8.93334 14.525 8.91667 14.2667 9 14C9.08334 13.7333 9.246 13.5373 9.488 13.412C9.73 13.2867 9.984 13.266 10.25 13.35L11.3 13.7C11.5833 13.7833 11.9043 13.85 12.263 13.9C12.6217 13.95 13.109 13.9833 13.725 14H14C14 13.8167 13.946 13.6417 13.838 13.475C13.73 13.3083 13.6007 13.2 13.45 13.15L7.6 11H6V16.5L12.95 18.4ZM12.425 20.35L6 18.55C5.86667 18.9833 5.604 19.3333 5.212 19.6C4.82 19.8667 4.416 20 4 20H2C1.45 20 0.979002 19.804 0.587002 19.412C0.195002 19.02 -0.000664969 18.5493 1.69779e-06 18V11C1.69779e-06 10.45 0.196002 9.979 0.588002 9.587C0.980002 9.195 1.45067 8.99933 2 9H7.6C7.71667 9 7.83334 9.01267 7.95 9.038C8.06667 9.06333 8.175 9.09233 8.275 9.125L14.15 11.3C14.7 11.5 15.146 11.85 15.488 12.35C15.83 12.85 16.0007 13.4 16 14H18C18.8333 14 19.5417 14.275 20.125 14.825C20.7083 15.375 21 16.1 21 17C21 17.3667 20.904 17.6543 20.712 17.863C20.52 18.0717 20.2243 18.2423 19.825 18.375L13.575 20.325C13.3917 20.3917 13.2 20.425 13 20.425C12.8 20.425 12.6083 20.4 12.425 20.35ZM2 18H4V11H2V18Z" fill="white"/>
</svg>
