<svg width="375" height="55" viewBox="0 0 375 55" fill="none" xmlns="http://www.w3.org/2000/svg">
<path d="M60.4238 1.07627C60.4083 0.82146 60.2999 0.581181 60.1191 0.40091C59.9384 0.220639 59.6978 0.112884 59.443 0.0980394C46.3347 -0.684545 35.8507 3.25446 31.3952 10.6081C28.3587 15.6219 28.4813 21.5434 31.7186 27.358C29.434 29.8677 27.9254 32.9854 27.3753 36.3343L21.2476 30.2066C23.4989 26.0329 23.5458 21.773 21.3572 18.1575C18.1173 12.8072 10.5262 9.94816 1.04394 10.5038C0.790432 10.5198 0.551471 10.6277 0.37186 10.8073C0.192248 10.987 0.084321 11.2259 0.0683152 11.4794C-0.487319 20.9565 2.37172 28.5476 7.72199 31.7875C9.43915 32.8416 11.4147 33.3996 13.4296 33.3996C15.6537 33.3618 17.8333 32.77 19.7712 31.6779L27.1301 39.0446V46.9566C27.1301 47.2333 27.24 47.4987 27.4357 47.6944C27.6314 47.8901 27.8968 48 28.1735 48C28.4503 48 28.7157 47.8901 28.9113 47.6944C29.107 47.4987 29.217 47.2333 29.217 46.9566V39.2638C29.2071 35.4115 30.6286 31.6928 33.2055 28.8293C36.2028 30.4884 39.2236 31.3231 42.1374 31.3231C44.8823 31.3236 47.5738 30.5643 49.9137 29.1293C57.2648 24.6712 61.1959 14.1872 60.4238 1.07627ZM8.80195 30.0006C4.29688 27.2772 1.82652 20.7896 2.10825 12.5437C10.3541 12.262 16.8417 14.7324 19.5651 19.2374C21.2555 22.0313 21.2842 25.3338 19.6851 28.6519L12.214 21.1756C12.0155 20.9958 11.7555 20.8992 11.4877 20.9057C11.2199 20.9123 10.965 21.0217 10.7756 21.211C10.5862 21.4004 10.4769 21.6554 10.4703 21.9232C10.4637 22.191 10.5603 22.451 10.7402 22.6495L18.219 30.1284C14.8983 31.7275 11.5958 31.6988 8.80195 30.0006ZM48.8311 27.3398C44.6443 29.8754 39.6775 29.8414 34.7237 27.2746L49.7807 12.215C49.9683 12.0179 50.0714 11.7553 50.0682 11.4832C50.065 11.2111 49.9555 10.9511 49.7633 10.7585C49.5711 10.5659 49.3112 10.456 49.0391 10.4523C48.767 10.4486 48.5042 10.5513 48.3068 10.7386L33.2473 25.7981C30.6804 20.8417 30.6387 15.8854 33.182 11.6907C37.1237 5.16918 46.5068 1.63973 58.3891 2.13276C58.8847 14.015 55.3422 23.3982 48.8311 27.3398Z" fill="white"/>
<path d="M72.3597 10.7198C72.3597 10.2511 72.4379 9.92297 72.5941 9.73547C72.7816 9.51672 73.0004 9.39172 73.2504 9.36047C73.5316 9.29797 73.8129 9.29797 74.0941 9.36047C74.4066 9.42297 74.6879 9.50109 74.9379 9.59484L83.141 45.6886C83.266 45.5636 83.516 44.9698 83.891 43.9073C84.2972 42.8448 84.7504 41.5167 85.2504 39.923C85.7816 38.298 86.3597 36.5011 86.9847 34.5323C87.6097 32.5636 88.2191 30.5948 88.8129 28.6261C89.4379 26.6261 90.016 24.7355 90.5472 22.9542C91.0785 21.173 91.5316 19.6573 91.9066 18.4073C92.1254 17.9386 92.391 17.5948 92.7035 17.3761C93.0472 17.1261 93.4066 17.0011 93.7816 17.0011C94.1566 17.0011 94.516 17.0948 94.8597 17.2823C95.2035 17.4698 95.4847 17.7511 95.7035 18.1261L104.985 45.2198L112.016 10.0636C112.172 9.78234 112.375 9.56359 112.625 9.40734C112.907 9.21984 113.172 9.12609 113.422 9.12609C113.672 9.12609 113.907 9.25109 114.125 9.50109C114.375 9.71984 114.563 10.1261 114.688 10.7198L106.766 48.2198C106.703 48.3448 106.547 48.5167 106.297 48.7355C106.078 48.923 105.797 49.048 105.453 49.1105C105.141 49.173 104.797 49.1105 104.422 48.923C104.047 48.7355 103.719 48.3136 103.438 47.6573L93.7816 21.0323L85.0629 48.5948C84.7816 48.9698 84.4222 49.1886 83.9847 49.2511C83.5472 49.3448 83.1254 49.3448 82.7191 49.2511C82.3129 49.1573 81.9535 49.0323 81.641 48.8761C81.3285 48.6886 81.1566 48.548 81.1254 48.4542L72.3597 10.7198Z" fill="white"/>
<path d="M118.811 20.4698C118.998 20.3761 119.217 20.298 119.467 20.2355C119.717 20.173 119.952 20.1417 120.17 20.1417C120.42 20.1417 120.655 20.1886 120.873 20.2823C121.092 20.3761 121.264 20.548 121.389 20.798C121.389 22.8292 121.405 25.0323 121.436 27.4073C121.498 29.7511 121.561 32.1417 121.623 34.5792C121.717 36.9855 121.795 39.3605 121.858 41.7042C121.92 44.048 121.983 46.2198 122.045 48.2198C122.077 48.6886 121.952 49.048 121.67 49.298C121.389 49.548 121.077 49.673 120.733 49.673C120.42 49.673 120.123 49.548 119.842 49.298C119.561 49.0792 119.42 48.7198 119.42 48.2198L118.811 20.4698ZM118.248 10.9073C118.248 10.5011 118.389 10.2355 118.67 10.1105C118.952 9.95422 119.264 9.87609 119.608 9.87609C120.295 9.87609 120.717 10.1105 120.873 10.5792C121.061 11.0167 121.155 11.5323 121.155 12.1261C120.967 12.5011 120.717 12.7667 120.405 12.923C120.092 13.0792 119.764 13.1105 119.42 13.0167C119.108 12.923 118.827 12.7042 118.577 12.3605C118.358 12.0167 118.248 11.5323 118.248 10.9073Z" fill="white"/>
<path d="M126.778 10.1573C126.965 10.0323 127.153 9.90734 127.34 9.78234C127.559 9.62609 127.778 9.53234 127.997 9.50109C128.215 9.43859 128.403 9.45422 128.559 9.54797C128.747 9.64172 128.903 9.84484 129.028 10.1573L129.309 48.8292C129.153 49.1417 128.95 49.3448 128.7 49.4386C128.45 49.5636 128.2 49.5948 127.95 49.5323C127.7 49.5011 127.465 49.4073 127.247 49.2511C127.059 49.0948 126.934 48.9073 126.872 48.6886L126.778 10.1573Z" fill="white"/>
<path d="M134.651 10.1573C134.838 10.0323 135.026 9.90734 135.213 9.78234C135.432 9.62609 135.651 9.53234 135.87 9.50109C136.088 9.43859 136.276 9.45422 136.432 9.54797C136.62 9.64172 136.776 9.84484 136.901 10.1573L137.182 48.8292C137.026 49.1417 136.823 49.3448 136.573 49.4386C136.323 49.5636 136.073 49.5948 135.823 49.5323C135.573 49.5011 135.338 49.4073 135.12 49.2511C134.932 49.0948 134.807 48.9073 134.745 48.6886L134.651 10.1573Z" fill="white"/>
<path d="M147.633 49.0636C146.383 48.9073 145.352 48.4073 144.54 47.5636C143.758 46.7198 143.133 45.6886 142.665 44.4698C142.196 43.2511 141.883 41.923 141.727 40.4855C141.602 39.0167 141.571 37.5792 141.633 36.173C141.727 34.0167 142.118 31.9542 142.805 29.9855C143.524 28.0167 144.399 26.3136 145.43 24.8761C146.493 23.4073 147.649 22.2823 148.899 21.5011C150.18 20.6886 151.43 20.3761 152.649 20.5636C153.93 20.7511 154.962 21.3605 155.743 22.3917C156.555 23.423 157.18 24.6886 157.618 26.1886C158.055 27.6886 158.321 29.3292 158.415 31.1105C158.508 32.8605 158.493 34.548 158.368 36.173C158.212 38.0167 157.805 39.7355 157.149 41.3292C156.493 42.923 155.665 44.298 154.665 45.4542C153.696 46.6105 152.587 47.5167 151.337 48.173C150.118 48.798 148.883 49.0948 147.633 49.0636ZM152.18 23.2355C151.149 23.1105 150.18 23.4386 149.274 24.2198C148.399 24.9698 147.602 25.9855 146.883 27.2667C146.196 28.5167 145.618 29.9542 145.149 31.5792C144.68 33.173 144.368 34.7511 144.212 36.3136C144.087 37.4386 144.04 38.5948 144.071 39.7823C144.102 40.9698 144.243 42.048 144.493 43.0167C144.774 43.9855 145.196 44.7823 145.758 45.4073C146.352 46.0011 147.133 46.298 148.102 46.298C148.883 46.3292 149.696 46.0636 150.54 45.5011C151.415 44.9386 152.227 44.1886 152.977 43.2511C153.727 42.2823 154.383 41.1886 154.946 39.9698C155.54 38.7511 155.93 37.5011 156.118 36.2198C156.337 34.8761 156.383 33.5011 156.258 32.0948C156.165 30.6573 155.93 29.3292 155.555 28.1105C155.212 26.8917 154.743 25.8448 154.149 24.9698C153.587 24.0636 152.93 23.4855 152.18 23.2355Z" fill="white"/>
<path d="M165.444 48.8761C165.35 48.3448 165.194 47.3917 164.975 46.0167C164.788 44.6105 164.553 43.0011 164.272 41.1886C164.022 39.3761 163.741 37.4542 163.428 35.423C163.147 33.3917 162.866 31.4698 162.585 29.6573C162.303 27.8448 162.053 26.2511 161.835 24.8761C161.616 23.4698 161.46 22.5011 161.366 21.9698C161.46 21.4073 161.632 21.0011 161.882 20.7511C162.132 20.4698 162.397 20.3292 162.678 20.3292C162.96 20.3292 163.241 20.423 163.522 20.6105C163.803 20.798 164.022 21.048 164.178 21.3605L167.038 42.6417C167.132 42.298 167.319 41.6261 167.6 40.6261C167.882 39.6261 168.194 38.4698 168.538 37.1573C168.913 35.8136 169.303 34.3917 169.71 32.8917C170.147 31.3917 170.553 29.9855 170.928 28.673C171.303 27.3292 171.632 26.1573 171.913 25.1573C172.194 24.1573 172.382 23.4855 172.475 23.1417C172.694 22.8605 172.96 22.6261 173.272 22.4386C173.585 22.2198 173.897 22.0948 174.21 22.0636C174.553 22.0011 174.882 22.0636 175.194 22.2511C175.507 22.4073 175.772 22.7042 175.991 23.1417L182.647 44.798L185.366 21.5011C185.491 21.1886 185.663 20.923 185.882 20.7042C186.132 20.4855 186.382 20.3917 186.632 20.423C186.913 20.423 187.178 20.5948 187.428 20.9386C187.71 21.2511 187.96 21.798 188.178 22.5792C188.147 22.7667 188.069 23.2667 187.944 24.0792C187.85 24.8605 187.725 25.8292 187.569 26.9855C187.413 28.1417 187.241 29.4386 187.053 30.8761C186.866 32.3136 186.678 33.7823 186.491 35.2823C186.303 36.7823 186.116 38.2511 185.928 39.6886C185.741 41.1261 185.569 42.423 185.413 43.5792C185.288 44.7355 185.178 45.7198 185.085 46.5323C184.991 47.3136 184.928 47.798 184.897 47.9855C184.678 48.4855 184.35 48.8448 183.913 49.0636C183.507 49.2823 183.085 49.3761 182.647 49.3448C182.241 49.3448 181.866 49.2355 181.522 49.0167C181.21 48.798 181.007 48.5011 180.913 48.1261L174.303 26.4698C173.741 29.0948 173.163 31.5011 172.569 33.6886C172.007 35.8448 171.46 37.8292 170.928 39.6417C170.428 41.4542 169.944 43.0948 169.475 44.5636C169.038 46.0323 168.663 47.3761 168.35 48.5948C168.163 48.9386 167.928 49.173 167.647 49.298C167.366 49.4542 167.085 49.5323 166.803 49.5323C166.522 49.5323 166.257 49.4698 166.007 49.3448C165.757 49.2198 165.569 49.0636 165.444 48.8761Z" fill="white"/>
<path d="M240.534 38.8917C239.628 39.9855 238.534 41.1261 237.253 42.3136C235.972 43.5011 234.597 44.5792 233.128 45.548C231.659 46.5167 230.159 47.298 228.628 47.8917C227.097 48.4855 225.643 48.7667 224.268 48.7355C222.893 48.673 221.628 48.2355 220.472 47.423C219.347 46.5792 218.456 45.1886 217.8 43.2511C217.393 41.8761 217.237 40.2667 217.331 38.423C217.456 36.5792 217.768 34.6417 218.268 32.6105C218.8 30.548 219.503 28.4698 220.378 26.3761C221.284 24.2511 222.331 22.2355 223.518 20.3292C224.737 18.423 226.081 16.673 227.55 15.0792C229.05 13.4542 230.628 12.1417 232.284 11.1417C233.972 10.1105 235.737 9.43859 237.581 9.12609C239.425 8.78234 241.315 8.93859 243.253 9.59484C243.503 9.59484 243.659 9.65734 243.722 9.78234C243.784 9.87609 243.8 10.0167 243.768 10.2042C243.737 10.3917 243.675 10.6261 243.581 10.9073C243.518 11.1886 243.487 11.5167 243.487 11.8917C241.206 11.5792 239.034 11.798 236.972 12.548C234.909 13.2667 232.987 14.3605 231.206 15.8292C229.456 17.298 227.878 19.048 226.472 21.0792C225.065 23.1105 223.878 25.2667 222.909 27.548C221.972 29.8292 221.284 32.1573 220.847 34.5323C220.409 36.8761 220.268 39.1105 220.425 41.2355C220.55 43.048 221.081 44.2823 222.018 44.9386C222.956 45.5636 224.097 45.7823 225.44 45.5948C226.815 45.3761 228.3 44.8292 229.893 43.9542C231.487 43.048 233.018 41.9542 234.487 40.673C235.987 39.3605 237.315 37.9386 238.472 36.4073C239.659 34.8761 240.503 33.3761 241.003 31.9073H232.565C232.097 31.2511 232.05 30.7511 232.425 30.4073C232.8 30.0636 233.44 29.8292 234.347 29.7042C235.284 29.548 236.393 29.4698 237.675 29.4698C238.956 29.4698 240.268 29.5011 241.612 29.5636C242.018 29.4698 242.581 29.2823 243.3 29.0011C244.018 28.6886 244.706 28.4386 245.362 28.2511C246.018 28.0636 246.534 28.0167 246.909 28.1105C247.315 28.2042 247.378 28.5792 247.097 29.2355C247.065 29.298 246.956 29.4073 246.768 29.5636C246.581 29.6886 246.362 29.8292 246.112 29.9855C245.893 30.1105 245.675 30.2355 245.456 30.3605C245.268 30.4855 245.143 30.5636 245.081 30.5948C244.331 32.0636 243.8 33.7823 243.487 35.7511C243.175 37.7198 243.003 39.7667 242.972 41.8917C242.94 44.0167 243.003 46.1261 243.159 48.2198C243.347 50.3136 243.565 52.2042 243.815 53.8917L242.034 54.5011C241.722 54.0323 241.456 53.1261 241.237 51.7823C241.05 50.4386 240.893 48.9542 240.768 47.3292C240.643 45.7042 240.565 44.1261 240.534 42.5948C240.503 41.0323 240.503 39.798 240.534 38.8917Z" fill="white"/>
<path d="M265.517 48.7823C265.079 48.1261 264.798 47.2667 264.673 46.2042C264.579 45.1417 264.517 44.0323 264.485 42.8761C264.485 41.6886 264.485 40.5323 264.485 39.4073C264.517 38.2511 264.438 37.2667 264.251 36.4542C262.782 39.673 261.392 42.1886 260.079 44.0011C258.798 45.7823 257.61 47.0636 256.517 47.8448C255.454 48.5948 254.485 48.9386 253.61 48.8761C252.735 48.7823 251.985 48.4698 251.36 47.9386C250.767 47.3761 250.298 46.7042 249.954 45.923C249.61 45.1105 249.423 44.3448 249.392 43.6261C249.173 42.4386 249.157 41.0167 249.345 39.3605C249.563 37.673 249.923 35.9386 250.423 34.1573C250.954 32.3761 251.61 30.6417 252.392 28.9542C253.204 27.2355 254.11 25.7511 255.11 24.5011C256.142 23.2511 257.235 22.3292 258.392 21.7355C259.548 21.1105 260.751 21.0011 262.001 21.4073C262.626 21.3448 263.142 21.3761 263.548 21.5011C263.985 21.5948 264.345 21.8136 264.626 22.1573C264.907 22.5011 265.11 22.9855 265.235 23.6105C265.36 24.2042 265.454 24.9698 265.517 25.9073C265.454 28.9386 265.532 31.5167 265.751 33.6417C266.001 35.7667 266.282 37.6417 266.595 39.2667C266.907 40.8917 267.204 42.3605 267.485 43.673C267.798 44.9855 267.985 46.3448 268.048 47.7511C268.048 48.2511 267.923 48.6417 267.673 48.923C267.423 49.173 267.142 49.3292 266.829 49.3917C266.517 49.4855 266.22 49.4698 265.938 49.3448C265.688 49.2198 265.548 49.0323 265.517 48.7823ZM262.798 25.1105C262.048 24.1105 261.235 23.6886 260.36 23.8448C259.485 24.0011 258.61 24.548 257.735 25.4855C256.892 26.3917 256.079 27.5948 255.298 29.0948C254.517 30.5636 253.845 32.1417 253.282 33.8292C252.72 35.5167 252.298 37.2042 252.017 38.8917C251.767 40.548 251.72 42.0167 251.876 43.298C252.313 44.7042 252.845 45.548 253.47 45.8292C254.095 46.1105 254.767 46.0167 255.485 45.548C256.204 45.048 256.938 44.2667 257.688 43.2042C258.438 42.1417 259.157 41.0011 259.845 39.7823C260.532 38.5323 261.142 37.298 261.673 36.0792C262.235 34.8292 262.688 33.7823 263.032 32.9386L262.798 25.1105Z" fill="white"/>
<path d="M272.358 48.3605C272.265 44.048 272.187 40.3917 272.124 37.3917C272.062 34.3917 272.015 31.9073 271.983 29.9386C271.952 27.9698 271.921 26.4386 271.89 25.3448C271.89 24.2198 271.874 23.3917 271.843 22.8605C271.843 22.3292 271.843 22.0167 271.843 21.923C271.843 21.798 271.843 21.7198 271.843 21.6886C271.874 21.4073 272.015 21.173 272.265 20.9855C272.515 20.798 272.78 20.6886 273.062 20.6573C273.374 20.5948 273.671 20.6261 273.952 20.7511C274.233 20.8761 274.437 21.0792 274.562 21.3605L274.702 32.1417C275.171 29.9855 275.921 28.1886 276.952 26.7511C278.015 25.3136 279.202 24.1886 280.515 23.3761C281.827 22.5323 283.187 21.9855 284.593 21.7355C286.03 21.4855 287.358 21.4698 288.577 21.6886C288.983 21.7823 289.28 21.9542 289.468 22.2042C289.687 22.4542 289.796 22.7355 289.796 23.048C289.827 23.3292 289.749 23.6105 289.562 23.8917C289.405 24.1417 289.187 24.3292 288.905 24.4542C287.499 24.3605 286.171 24.4855 284.921 24.8292C283.702 25.1417 282.577 25.6261 281.546 26.2823C280.546 26.9073 279.655 27.6573 278.874 28.5323C278.124 29.4073 277.53 30.3292 277.093 31.298C276.437 32.7042 275.983 34.1886 275.733 35.7511C275.515 37.2823 275.374 38.8136 275.312 40.3448C275.28 41.8761 275.28 43.3292 275.312 44.7042C275.374 46.0792 275.39 47.2823 275.358 48.3136C275.327 48.6573 275.171 48.923 274.89 49.1105C274.64 49.2667 274.343 49.3448 273.999 49.3448C273.687 49.3761 273.358 49.3136 273.015 49.1573C272.702 48.9698 272.483 48.7042 272.358 48.3605Z" fill="white"/>
<path d="M302.497 40.2511C302.153 41.0323 301.638 41.9386 300.95 42.9698C300.263 44.0011 299.466 44.9698 298.56 45.8761C297.653 46.7823 296.653 47.5636 295.56 48.2198C294.497 48.8448 293.388 49.1573 292.232 49.1573C291.732 49.1573 291.325 49.0948 291.013 48.9698C290.732 48.8448 290.466 48.673 290.216 48.4542C289.997 48.2042 289.794 47.9073 289.607 47.5636C289.419 47.2198 289.185 46.8292 288.903 46.3917C288.622 44.8292 288.466 43.0948 288.435 41.1886C288.435 39.2823 288.591 37.3605 288.903 35.423C289.247 33.4855 289.747 31.6417 290.403 29.8917C291.091 28.1105 291.966 26.5948 293.028 25.3448C294.122 24.0948 295.419 23.2042 296.919 22.673C298.45 22.1105 300.216 22.0636 302.216 22.5323C302.403 20.5636 302.419 18.5948 302.263 16.6261C302.107 14.6261 301.982 12.548 301.888 10.3917C301.888 10.0792 302.028 9.86047 302.31 9.73547C302.591 9.57922 302.903 9.48547 303.247 9.45422C303.622 9.39172 303.966 9.37609 304.278 9.40734C304.622 9.43859 304.841 9.50109 304.935 9.59484C304.903 12.4073 304.872 14.9855 304.841 17.3292C304.841 19.673 304.841 21.8917 304.841 23.9855C304.841 26.048 304.841 28.048 304.841 29.9855C304.841 31.923 304.841 33.9073 304.841 35.9386C304.872 37.9698 304.888 40.1105 304.888 42.3605C304.919 44.6105 304.935 47.0792 304.935 49.7667C305.091 50.2667 305.044 50.6886 304.794 51.0323C304.575 51.3761 304.294 51.5948 303.95 51.6886C303.607 51.7823 303.247 51.7355 302.872 51.548C302.528 51.3605 302.31 51.0011 302.216 50.4698L302.497 40.2511ZM300.247 25.1105C299.06 24.923 297.935 25.2511 296.872 26.0948C295.841 26.9073 294.919 28.0323 294.107 29.4698C293.294 30.8761 292.622 32.4698 292.091 34.2511C291.56 36.0011 291.216 37.7042 291.06 39.3605C290.935 40.9855 291.013 42.4542 291.294 43.7667C291.575 45.0792 292.122 45.9855 292.935 46.4855C293.716 46.4855 294.482 46.2198 295.232 45.6886C295.982 45.1261 296.685 44.423 297.341 43.5792C298.028 42.7355 298.653 41.798 299.216 40.7667C299.81 39.7042 300.325 38.673 300.763 37.673C301.2 36.673 301.528 35.7667 301.747 34.9542C301.997 34.1105 302.122 33.4698 302.122 33.0323C302.122 32.6886 302.122 32.0792 302.122 31.2042C302.122 30.3292 302.06 29.4386 301.935 28.5323C301.841 27.6261 301.653 26.8292 301.372 26.1417C301.122 25.4542 300.747 25.1105 300.247 25.1105Z" fill="white"/>
<path d="M311.073 36.7355C310.855 36.923 310.464 37.0011 309.902 36.9698C309.37 36.9073 308.87 36.7823 308.402 36.5948C307.964 36.4073 307.667 36.1573 307.511 35.8448C307.355 35.5011 307.542 35.1105 308.073 34.673C308.292 34.4855 308.527 34.3605 308.777 34.298C309.058 34.2042 309.323 34.1261 309.573 34.0636C309.855 33.9698 310.073 33.8448 310.23 33.6886C310.417 33.5323 310.527 33.2823 310.558 32.9386C310.589 31.5323 310.698 30.0948 310.886 28.6261C311.105 27.1573 311.495 25.8448 312.058 24.6886C312.62 23.5323 313.417 22.6105 314.448 21.923C315.511 21.2355 316.902 20.9698 318.62 21.1261C319.245 21.1261 319.948 21.2823 320.73 21.5948C321.511 21.8761 322.261 22.2667 322.98 22.7667C323.698 23.2355 324.323 23.8136 324.855 24.5011C325.386 25.1573 325.714 25.8761 325.839 26.6573C326.058 26.9698 325.933 27.3605 325.464 27.8292C324.995 28.298 324.339 28.8292 323.495 29.423C322.652 29.9855 321.698 30.5636 320.636 31.1573C319.573 31.7511 318.542 32.3136 317.542 32.8448C316.573 33.3761 315.714 33.8448 314.964 34.2511C314.214 34.6573 313.73 34.9386 313.511 35.0948C313.698 36.3136 313.902 37.5948 314.12 38.9386C314.339 40.2823 314.652 41.5167 315.058 42.6417C315.464 43.7667 315.964 44.7042 316.558 45.4542C317.183 46.173 317.964 46.5323 318.902 46.5323C320.277 46.6261 321.448 46.423 322.417 45.923C323.417 45.423 324.245 44.7667 324.902 43.9542C325.558 43.1417 326.073 42.2511 326.448 41.2823C326.855 40.3136 327.152 39.3917 327.339 38.5167C327.558 37.6417 327.698 36.9073 327.761 36.3136C327.855 35.6886 327.933 35.3448 327.995 35.2823C328.339 35.0948 328.73 35.0948 329.167 35.2823C329.605 35.4386 329.855 35.8917 329.917 36.6417C329.948 37.8605 329.683 39.2511 329.12 40.8136C328.558 42.3761 327.777 43.8136 326.777 45.1261C325.808 46.4386 324.636 47.5011 323.261 48.3136C321.917 49.0948 320.48 49.3605 318.948 49.1105C317.355 49.0792 316.089 48.6261 315.152 47.7511C314.214 46.8448 313.464 45.7667 312.902 44.5167C312.37 43.2355 311.98 41.8917 311.73 40.4855C311.48 39.0792 311.261 37.8292 311.073 36.7355ZM323.355 26.6573C322.355 25.2823 321.339 24.4073 320.308 24.0323C319.277 23.6573 318.214 23.548 317.12 23.7042C316.464 23.798 315.886 24.1105 315.386 24.6417C314.886 25.1417 314.48 25.798 314.167 26.6105C313.855 27.3917 313.636 28.2823 313.511 29.2823C313.386 30.2511 313.37 31.2511 313.464 32.2823L323.355 26.6573Z" fill="white"/>
<path d="M333.243 21.3136C333.275 21.0011 333.4 20.7511 333.618 20.5636C333.837 20.3761 334.087 20.2667 334.368 20.2355C334.65 20.173 334.931 20.2042 335.212 20.3292C335.493 20.423 335.728 20.5792 335.915 20.798L335.775 39.548C336.368 37.298 336.9 35.0792 337.368 32.8917C337.868 30.673 338.478 28.673 339.197 26.8917C339.915 25.0792 340.822 23.5948 341.915 22.4386C343.009 21.2511 344.462 20.5792 346.275 20.423C347.243 20.3292 348.087 20.6261 348.806 21.3136C349.525 21.9698 350.134 22.8761 350.634 24.0323C351.165 25.1886 351.603 26.548 351.947 28.1105C352.29 29.6417 352.556 31.2511 352.743 32.9386C352.962 34.5948 353.118 36.2667 353.212 37.9542C353.306 39.6417 353.368 41.2042 353.4 42.6417C353.431 44.0792 353.431 45.3448 353.4 46.4386C353.4 47.5323 353.384 48.3292 353.353 48.8292C353.134 49.3605 352.743 49.7042 352.181 49.8605C351.65 50.048 351.165 49.8292 350.728 49.2042C350.697 48.6105 350.681 47.5948 350.681 46.1573C350.681 44.6886 350.65 43.0167 350.587 41.1417C350.556 39.2667 350.462 37.3136 350.306 35.2823C350.181 33.2198 349.947 31.3292 349.603 29.6105C349.29 27.8605 348.837 26.4073 348.243 25.2511C347.681 24.0636 346.947 23.3917 346.04 23.2355C345.259 23.1105 344.493 23.5323 343.743 24.5011C343.025 25.4698 342.322 26.7511 341.634 28.3448C340.978 29.9386 340.353 31.7355 339.759 33.7355C339.197 35.7355 338.681 37.7042 338.212 39.6417C337.775 41.5792 337.4 43.3605 337.087 44.9855C336.775 46.6105 336.572 47.8605 336.478 48.7355C336.384 48.9855 336.197 49.1886 335.915 49.3448C335.634 49.5011 335.322 49.5792 334.978 49.5792C334.665 49.6105 334.337 49.5636 333.993 49.4386C333.681 49.3136 333.447 49.0792 333.29 48.7355L333.243 21.3136Z" fill="white"/>
<path d="M358.226 45.8761C358.82 46.3448 359.538 46.5948 360.382 46.6261C361.257 46.6573 362.163 46.548 363.101 46.298C364.07 46.0167 365.038 45.6261 366.007 45.1261C367.007 44.5948 367.913 44.0167 368.726 43.3917C369.57 42.7667 370.288 42.1105 370.882 41.423C371.507 40.7042 371.929 40.0323 372.148 39.4073C372.367 38.7511 372.351 38.1573 372.101 37.6261C371.851 37.0948 371.288 36.673 370.413 36.3605C368.82 36.7355 367.226 37.0323 365.632 37.2511C364.038 37.4698 362.601 37.4698 361.32 37.2511C360.07 37.0323 359.054 36.5167 358.273 35.7042C357.492 34.8917 357.132 33.6417 357.195 31.9542C357.288 30.3292 357.726 28.8136 358.507 27.4073C359.32 25.9698 360.335 24.7511 361.554 23.7511C362.804 22.7511 364.179 21.9855 365.679 21.4542C367.21 20.923 368.757 20.7042 370.32 20.798C370.632 20.8292 370.913 20.8605 371.163 20.8917C371.445 20.8917 371.695 20.9386 371.913 21.0323C372.132 21.1261 372.288 21.2667 372.382 21.4542C372.507 21.6417 372.554 21.923 372.523 22.298C372.492 22.7667 372.32 23.1417 372.007 23.423C371.695 23.7042 371.273 23.8136 370.742 23.7511C368.898 23.3761 367.242 23.4542 365.773 23.9855C364.304 24.5167 363.085 25.2667 362.117 26.2355C361.148 27.173 360.46 28.2355 360.054 29.423C359.648 30.6105 359.585 31.6886 359.867 32.6573C360.46 33.7823 361.226 34.5011 362.163 34.8136C363.132 35.0948 364.148 35.1886 365.21 35.0948C366.304 35.0011 367.413 34.8448 368.538 34.6261C369.663 34.3761 370.679 34.298 371.585 34.3917C372.492 34.4542 373.242 34.798 373.835 35.423C374.429 36.0167 374.757 37.1261 374.82 38.7511C374.788 39.7823 374.445 40.7823 373.788 41.7511C373.132 42.6886 372.288 43.5792 371.257 44.423C370.257 45.2355 369.132 45.9855 367.882 46.673C366.632 47.3292 365.382 47.8761 364.132 48.3136C362.913 48.7511 361.757 49.048 360.663 49.2042C359.601 49.3605 358.742 49.3448 358.085 49.1573C357.367 48.5323 356.992 47.923 356.96 47.3292C356.929 46.7042 357.351 46.2198 358.226 45.8761Z" fill="white"/>
</svg>
