<svg width="28" height="23" viewBox="0 0 28 23" fill="none" xmlns="http://www.w3.org/2000/svg">
<path d="M21.398 10.0228C21.058 10.0428 20.836 9.93284 20.808 9.91384L19.121 10.9918C19.492 11.5738 20.258 11.9688 21.117 12.0198C21.184 12.0228 21.25 12.0228 21.317 12.0228C22.445 12.0228 23.555 11.4528 24.395 10.4378C25.828 8.69484 26.835 6.84784 26.879 6.76984L27.332 5.92984L26.516 5.43784C21.984 2.71484 19.395 4.00784 18.492 4.69084C17.927 5.11633 17.4951 5.69405 17.2468 6.35628C16.9985 7.01851 16.9441 7.7378 17.09 8.42984C16.16 9.02284 15.234 9.77284 14.496 10.6878C14.07 9.69084 13.406 8.79684 12.633 8.00784C12.703 7.82384 12.75 7.64484 12.781 7.51184C12.797 7.44184 12.812 7.37484 12.832 7.31584C13.344 5.60184 12.641 3.60184 11.082 2.34384C9.972 1.44884 6.82 -0.316159 1.52 2.60484L0.835999 2.97984L1.031 3.72984C1.071 3.88284 2.016 7.44484 3.895 9.53084C4.707 10.4338 5.727 10.9408 6.848 10.9958C6.918 10.9998 6.988 10.9998 7.055 10.9998C8.313 10.9998 9.391 10.4408 9.828 10.0428L8.484 8.56284C8.469 8.57384 6.789 9.75284 5.383 8.19084C4.293 6.98384 3.551 5.04684 3.199 3.98384C6.984 2.15984 9.079 3.29684 9.824 3.89784C10.699 4.60484 11.133 5.64784 10.954 6.55484C8.8 4.95984 6.558 4.06984 6.378 4.00384L5.655 5.86684C7.7 6.65684 13 9.48384 13 12.9998V16.1448C12.236 16.3401 11.547 16.7573 11.02 17.3438C10.5459 17.1157 10.0262 16.9981 9.5 16.9998C8.82046 17.0003 8.15575 17.1985 7.58698 17.5703C7.0182 17.9422 6.56998 18.4715 6.297 19.0938C6.03594 19.0313 5.76843 18.9998 5.5 18.9998C3.57 18.9998 2 20.5698 2 22.4998V22.9998H4V22.4998C4 22.102 4.15803 21.7205 4.43934 21.4392C4.72064 21.1579 5.10217 20.9998 5.5 20.9998C5.902 20.9998 6.21 21.1678 6.398 21.3088L8 20.5118V20.4958C8.00237 20.0991 8.16129 19.7194 8.4422 19.4392C8.7231 19.1591 9.10327 19.0012 9.5 18.9998C9.902 18.9998 10.281 19.1598 10.566 19.4498L12.187 19.1678C12.3465 18.8206 12.6019 18.5262 12.9231 18.3193C13.2443 18.1124 13.6179 18.0015 14 17.9998C14.3606 18.0018 14.714 18.1018 15.0222 18.289C15.3304 18.4762 15.582 18.7437 15.75 19.0628L17.328 19.3048C17.528 19.1088 17.793 18.9998 18.07 18.9998C18.656 18.9998 19.137 19.4798 19.137 20.0658C19.137 20.1838 19.113 20.3008 19.067 20.4298L20.672 21.5198C20.937 21.2808 21.382 20.9998 22 20.9998C23.102 20.9998 24 21.8978 24 22.9998H26C26 20.7928 24.207 18.9998 22 18.9998C21.656 18.9998 21.316 19.0468 20.992 19.1328C20.8617 18.7275 20.6486 18.3537 20.3663 18.035C20.084 17.7164 19.7385 17.4599 19.3518 17.2817C18.9652 17.1036 18.5457 17.0077 18.12 17.0001C17.6943 16.9926 17.2717 17.0735 16.879 17.2378C16.366 16.7065 15.7155 16.3282 15 16.1448V14.9998H15.004V14.6718C15.004 10.5198 21.535 8.53184 21.602 8.51184L21.039 6.59384C20.937 6.62084 20.121 6.87084 19.047 7.36384C19.125 6.94884 19.34 6.56184 19.703 6.28884C20.762 5.48384 22.559 5.63684 24.617 6.67584C24.0855 7.54532 23.4958 8.37788 22.852 9.16784C22.301 9.83584 21.758 10.0038 21.398 10.0228ZM11.484 6.81984L11.496 6.97684C11.446 6.93684 11.391 6.89784 11.34 6.85484C11.387 6.84384 11.43 6.82484 11.484 6.81984Z" fill="white"/>
</svg>
